<mxfile host="app.diagrams.net" modified="2024-05-16T15:26:26.771Z" agent="Mozilla/5.0 (Windows NT 10.0; Win64; x64) AppleWebKit/537.36 (KHTML, like Gecko) Chrome/125.0.0.0 Safari/537.36" etag="sdvtk7deGJbAO1bd-OCN" version="24.4.2" type="github">
  <diagram name="페이지-1" id="i5arWkUEMQHLVfcjBkDX">
    <mxGraphModel dx="1674" dy="746" grid="1" gridSize="10" guides="1" tooltips="1" connect="1" arrows="1" fold="1" page="1" pageScale="1" pageWidth="827" pageHeight="1169" math="0" shadow="0">
      <root>
        <mxCell id="0" />
        <mxCell id="1" parent="0" />
        <mxCell id="uGTPeejNFL5HIZhyMooo-1" value="" style="rounded=0;whiteSpace=wrap;html=1;" vertex="1" parent="1">
          <mxGeometry x="200" y="40" width="560" height="600" as="geometry" />
        </mxCell>
        <mxCell id="uGTPeejNFL5HIZhyMooo-2" value="Planner" style="text;strokeColor=none;fillColor=none;html=1;fontSize=24;fontStyle=1;verticalAlign=middle;align=center;" vertex="1" parent="1">
          <mxGeometry x="430" y="50" width="100" height="40" as="geometry" />
        </mxCell>
        <mxCell id="uGTPeejNFL5HIZhyMooo-3" value="Primary Actor" style="shape=umlActor;verticalLabelPosition=bottom;verticalAlign=top;html=1;outlineConnect=0;" vertex="1" parent="1">
          <mxGeometry x="80" y="240" width="80" height="120" as="geometry" />
        </mxCell>
        <mxCell id="uGTPeejNFL5HIZhyMooo-5" value="Secondary Actor" style="shape=umlActor;verticalLabelPosition=bottom;verticalAlign=top;html=1;outlineConnect=0;" vertex="1" parent="1">
          <mxGeometry x="810" y="490" width="80" height="120" as="geometry" />
        </mxCell>
        <mxCell id="uGTPeejNFL5HIZhyMooo-7" value="작성" style="ellipse;whiteSpace=wrap;html=1;" vertex="1" parent="1">
          <mxGeometry x="270" y="100" width="120" height="80" as="geometry" />
        </mxCell>
        <mxCell id="uGTPeejNFL5HIZhyMooo-8" value="조회" style="ellipse;whiteSpace=wrap;html=1;" vertex="1" parent="1">
          <mxGeometry x="270" y="210" width="120" height="80" as="geometry" />
        </mxCell>
        <mxCell id="uGTPeejNFL5HIZhyMooo-9" value="수정" style="ellipse;whiteSpace=wrap;html=1;" vertex="1" parent="1">
          <mxGeometry x="270" y="330" width="120" height="80" as="geometry" />
        </mxCell>
        <mxCell id="uGTPeejNFL5HIZhyMooo-10" value="삭제" style="ellipse;whiteSpace=wrap;html=1;" vertex="1" parent="1">
          <mxGeometry x="270" y="450" width="120" height="80" as="geometry" />
        </mxCell>
        <mxCell id="uGTPeejNFL5HIZhyMooo-12" value="&amp;lt;&amp;lt;actor&amp;gt;&amp;gt;" style="rounded=0;whiteSpace=wrap;html=1;" vertex="1" parent="1">
          <mxGeometry x="770" y="390" width="120" height="60" as="geometry" />
        </mxCell>
        <mxCell id="uGTPeejNFL5HIZhyMooo-14" value="" style="endArrow=classic;html=1;rounded=0;exitX=1;exitY=0.5;exitDx=0;exitDy=0;exitPerimeter=0;" edge="1" parent="1" source="uGTPeejNFL5HIZhyMooo-9" target="uGTPeejNFL5HIZhyMooo-16">
          <mxGeometry relative="1" as="geometry">
            <mxPoint x="400" y="370" as="sourcePoint" />
            <mxPoint x="480" y="369.5" as="targetPoint" />
          </mxGeometry>
        </mxCell>
        <mxCell id="uGTPeejNFL5HIZhyMooo-15" value="&amp;lt;&amp;lt;include&amp;gt;&amp;gt;" style="edgeLabel;resizable=0;html=1;;align=center;verticalAlign=middle;" connectable="0" vertex="1" parent="uGTPeejNFL5HIZhyMooo-14">
          <mxGeometry relative="1" as="geometry" />
        </mxCell>
        <mxCell id="uGTPeejNFL5HIZhyMooo-16" value="비밀번호 확인" style="ellipse;whiteSpace=wrap;html=1;" vertex="1" parent="1">
          <mxGeometry x="520" y="330" width="120" height="80" as="geometry" />
        </mxCell>
        <mxCell id="uGTPeejNFL5HIZhyMooo-19" value="" style="endArrow=classic;html=1;rounded=0;exitX=1;exitY=0.5;exitDx=0;exitDy=0;exitPerimeter=0;" edge="1" parent="1">
          <mxGeometry relative="1" as="geometry">
            <mxPoint x="390" y="489.5" as="sourcePoint" />
            <mxPoint x="520" y="489.5" as="targetPoint" />
          </mxGeometry>
        </mxCell>
        <mxCell id="uGTPeejNFL5HIZhyMooo-20" value="&amp;lt;&amp;lt;include&amp;gt;&amp;gt;" style="edgeLabel;resizable=0;html=1;;align=center;verticalAlign=middle;" connectable="0" vertex="1" parent="uGTPeejNFL5HIZhyMooo-19">
          <mxGeometry relative="1" as="geometry" />
        </mxCell>
        <mxCell id="uGTPeejNFL5HIZhyMooo-21" value="비밀번호 확인" style="ellipse;whiteSpace=wrap;html=1;" vertex="1" parent="1">
          <mxGeometry x="520" y="450" width="120" height="80" as="geometry" />
        </mxCell>
        <mxCell id="uGTPeejNFL5HIZhyMooo-22" value="&amp;lt;&amp;lt;include&amp;gt;&amp;gt;" style="edgeLabel;resizable=0;html=1;;align=center;verticalAlign=middle;" connectable="0" vertex="1" parent="1">
          <mxGeometry x="465" y="380" as="geometry" />
        </mxCell>
        <mxCell id="uGTPeejNFL5HIZhyMooo-23" value="id 로 조회" style="ellipse;whiteSpace=wrap;html=1;" vertex="1" parent="1">
          <mxGeometry x="520" y="200" width="120" height="80" as="geometry" />
        </mxCell>
        <mxCell id="uGTPeejNFL5HIZhyMooo-25" value="전체 조회" style="ellipse;whiteSpace=wrap;html=1;" vertex="1" parent="1">
          <mxGeometry x="520" y="100" width="120" height="80" as="geometry" />
        </mxCell>
        <mxCell id="uGTPeejNFL5HIZhyMooo-26" value="" style="endArrow=none;html=1;rounded=0;" edge="1" parent="1" source="uGTPeejNFL5HIZhyMooo-8" target="uGTPeejNFL5HIZhyMooo-25">
          <mxGeometry width="50" height="50" relative="1" as="geometry">
            <mxPoint x="390" y="250" as="sourcePoint" />
            <mxPoint x="440" y="200" as="targetPoint" />
          </mxGeometry>
        </mxCell>
        <mxCell id="uGTPeejNFL5HIZhyMooo-27" value="" style="endArrow=none;html=1;rounded=0;" edge="1" parent="1" target="uGTPeejNFL5HIZhyMooo-7">
          <mxGeometry width="50" height="50" relative="1" as="geometry">
            <mxPoint x="160" y="280" as="sourcePoint" />
            <mxPoint x="210" y="230" as="targetPoint" />
          </mxGeometry>
        </mxCell>
        <mxCell id="uGTPeejNFL5HIZhyMooo-28" value="" style="endArrow=none;html=1;rounded=0;" edge="1" parent="1" source="uGTPeejNFL5HIZhyMooo-8" target="uGTPeejNFL5HIZhyMooo-23">
          <mxGeometry width="50" height="50" relative="1" as="geometry">
            <mxPoint x="380" y="275" as="sourcePoint" />
            <mxPoint x="430" y="225" as="targetPoint" />
          </mxGeometry>
        </mxCell>
        <mxCell id="uGTPeejNFL5HIZhyMooo-29" value="" style="endArrow=none;html=1;rounded=0;exitX=1;exitY=0.3333333333333333;exitDx=0;exitDy=0;exitPerimeter=0;entryX=0;entryY=0.625;entryDx=0;entryDy=0;entryPerimeter=0;" edge="1" parent="1" source="uGTPeejNFL5HIZhyMooo-3" target="uGTPeejNFL5HIZhyMooo-8">
          <mxGeometry width="50" height="50" relative="1" as="geometry">
            <mxPoint x="170" y="290" as="sourcePoint" />
            <mxPoint x="302" y="181" as="targetPoint" />
          </mxGeometry>
        </mxCell>
        <mxCell id="uGTPeejNFL5HIZhyMooo-30" value="" style="endArrow=none;html=1;rounded=0;entryX=0;entryY=0.5;entryDx=0;entryDy=0;" edge="1" parent="1" target="uGTPeejNFL5HIZhyMooo-9">
          <mxGeometry width="50" height="50" relative="1" as="geometry">
            <mxPoint x="160" y="280" as="sourcePoint" />
            <mxPoint x="280" y="270" as="targetPoint" />
          </mxGeometry>
        </mxCell>
        <mxCell id="uGTPeejNFL5HIZhyMooo-31" value="" style="endArrow=none;html=1;rounded=0;entryX=-0.008;entryY=0.4;entryDx=0;entryDy=0;entryPerimeter=0;" edge="1" parent="1" target="uGTPeejNFL5HIZhyMooo-10">
          <mxGeometry width="50" height="50" relative="1" as="geometry">
            <mxPoint x="160" y="280" as="sourcePoint" />
            <mxPoint x="270" y="370" as="targetPoint" />
          </mxGeometry>
        </mxCell>
      </root>
    </mxGraphModel>
  </diagram>
</mxfile>
